<svg width="174" height="175" viewBox="0 0 174 175" fill="none" xmlns="http://www.w3.org/2000/svg">
<path opacity="0.1" d="M83.8259 149C125.046 149 158.566 115.639 158.566 74.5802C158.406 33.3606 125.046 0 83.8259 0C42.4459 0 9.08533 33.3606 9.08533 74.4198C9.08533 115.639 42.4459 149 83.8259 149Z" fill="#EAEEF9"/>
<path d="M133.427 36.0606V41.8243H132.984H127.368L41.2069 41.5287C39.5812 41.5287 37.9555 41.2332 36.3299 40.7898C36.1821 40.7898 36.0343 40.642 35.8865 40.642C33.8175 39.9031 32.044 39.0163 30.5661 37.5385C29.3838 36.3561 28.4971 34.5827 28.4971 32.957C28.4971 29.8534 31.0095 27.4888 34.5564 26.0109C35.7387 25.4198 37.2166 25.1242 38.6945 24.9764C39.2856 24.9764 39.8768 24.8286 40.4679 24.8286H122.195C123.082 24.8286 123.821 24.9764 124.56 25.1242C125.151 25.272 125.742 25.4198 126.333 25.7154C130.619 27.4888 133.427 31.3313 133.427 36.0606Z" fill="black"/>
<path opacity="0.1" d="M132.984 41.8243H127.368L41.2068 41.5287C39.5811 41.5287 37.9555 41.2331 36.3298 40.7898C36.182 40.7898 36.0342 40.642 35.8864 40.642C33.8174 39.903 32.0439 39.0163 30.566 37.5384C31.6006 36.5039 32.9307 35.6172 34.5563 35.026C35.7386 34.4348 37.2165 34.1393 38.6944 33.9915C39.2856 33.8437 39.8767 33.8437 40.4679 33.8437H122.195C123.082 33.8437 123.821 33.9915 124.56 34.1393C125.151 34.2871 125.742 34.4348 126.333 34.7304C129.584 36.0605 131.949 38.7207 132.984 41.8243Z" fill="white"/>
<g filter="url(#filter0_d_0_1)">
<path d="M143.92 50.8394V123.404C143.92 128.428 139.93 132.419 134.905 132.419H47.8573C40.6157 132.419 34.9997 129.02 31.4528 126.212C29.8271 124.881 28.7926 122.812 28.7926 120.743C28.7926 119.709 28.7926 118.674 28.7926 117.64C28.7926 116.162 28.7926 114.388 28.7926 112.615C28.7926 104.339 28.7926 93.2547 28.6448 82.0228C28.6448 80.3971 28.6448 78.7714 28.6448 76.998C28.6448 71.0864 28.6448 65.1749 28.497 59.5589C28.497 57.9332 28.497 56.3076 28.497 54.5341C28.497 43.4499 28.3492 35.1738 28.3492 33.2525C28.3492 36.5039 31.4528 39.4597 35.5909 40.642C35.7387 40.642 35.8865 40.7898 36.0343 40.7898C37.5121 41.2331 39.2856 41.5287 40.9113 41.5287L127.072 41.9721H133.279H134.757C139.93 41.8243 143.92 45.8146 143.92 50.8394Z" fill="#1E1F27"/>
</g>
<path opacity="0.1" d="M126.481 75.5201C123.377 75.5201 120.717 76.7024 118.796 78.6237C116.875 80.5449 115.544 83.3529 115.544 86.3087C115.544 86.4565 115.544 86.7521 115.544 86.8999C115.84 92.6636 120.717 97.2451 126.481 97.2451H143.92V75.5201H126.481Z" fill="url(#paint0_linear_0_1)"/>
<g filter="url(#filter1_d_0_1)">
<path d="M143.92 71.382V74.0422C143.772 74.0422 143.624 74.0422 143.329 74.0422H125.594C122.49 74.0422 119.83 75.2246 117.909 77.1458C116.135 78.9193 114.805 81.5795 114.658 84.3875C114.658 84.5352 114.658 84.8308 114.658 84.9786C114.658 91.0379 119.535 95.915 125.594 95.915H143.329C144.215 95.915 144.954 95.6194 145.25 95.176C145.398 95.0282 145.545 94.7327 145.545 94.5849V72.7121C145.545 71.9732 144.806 71.5298 143.92 71.382Z" fill="#121318"/>
</g>
<path opacity="0.4" d="M124.707 91.4813C128.254 91.4813 131.21 88.5255 131.21 84.9786C131.21 81.4316 128.254 78.4759 124.707 78.4759C121.16 78.4759 118.205 81.4316 118.205 84.9786C118.205 88.5255 121.16 91.4813 124.707 91.4813Z" fill="#535661"/>
<path d="M67.9844 90.876C70.4263 90.876 72.4925 88.8098 72.4925 86.3679C72.4925 83.926 70.4263 81.8598 67.9844 81.8598C65.5425 81.8598 63.4763 83.926 63.4763 86.3679C63.4763 88.8098 65.5425 90.876 67.9844 90.876Z" fill="#00FF83"/>
<path d="M102.547 90.876C104.989 90.876 107.055 88.8098 107.055 86.3679C107.055 83.926 104.989 81.8598 102.547 81.8598C100.105 81.8598 98.0386 83.926 98.0386 86.3679C98.0386 88.9976 100.105 90.876 102.547 90.876Z" fill="#00FF83"/>
<path d="M67.8083 71.4534L57.8916 76.8078L59.2302 79.287L69.1469 73.9325L67.8083 71.4534Z" fill="#D83232"/>
<path d="M101.933 71.382L100.595 73.8615L110.513 79.2148L111.851 76.7354L101.933 71.382Z" fill="#D83232"/>
<path d="M85.2656 101.395C88.1703 101.395 90.525 99.6288 90.525 97.4502C90.525 95.2717 88.1703 93.5057 85.2656 93.5057C82.3608 93.5057 80.0061 95.2717 80.0061 97.4502C80.0061 99.6288 82.3608 101.395 85.2656 101.395Z" fill="#00FF83"/>
<defs>
<filter id="filter0_d_0_1" x="0.397388" y="19.2766" width="171.474" height="155.07" filterUnits="userSpaceOnUse" color-interpolation-filters="sRGB">
<feFlood flood-opacity="0" result="BackgroundImageFix"/>
<feColorMatrix in="SourceAlpha" type="matrix" values="0 0 0 0 0 0 0 0 0 0 0 0 0 0 0 0 0 0 127 0" result="hardAlpha"/>
<feOffset dy="13.9759"/>
<feGaussianBlur stdDeviation="13.9759"/>
<feColorMatrix type="matrix" values="0 0 0 0 0.372549 0 0 0 0 0.207843 0 0 0 0 0.584314 0 0 0 0.28 0"/>
<feBlend mode="normal" in2="BackgroundImageFix" result="effect1_dropShadow_0_1"/>
<feBlend mode="normal" in="SourceGraphic" in2="effect1_dropShadow_0_1" result="shape"/>
</filter>
<filter id="filter1_d_0_1" x="86.7057" y="57.4061" width="86.7915" height="80.4366" filterUnits="userSpaceOnUse" color-interpolation-filters="sRGB">
<feFlood flood-opacity="0" result="BackgroundImageFix"/>
<feColorMatrix in="SourceAlpha" type="matrix" values="0 0 0 0 0 0 0 0 0 0 0 0 0 0 0 0 0 0 127 0" result="hardAlpha"/>
<feOffset dy="13.9759"/>
<feGaussianBlur stdDeviation="13.9759"/>
<feColorMatrix type="matrix" values="0 0 0 0 0.397708 0 0 0 0 0.47749 0 0 0 0 0.575 0 0 0 0.27 0"/>
<feBlend mode="normal" in2="BackgroundImageFix" result="effect1_dropShadow_0_1"/>
<feBlend mode="normal" in="SourceGraphic" in2="effect1_dropShadow_0_1" result="shape"/>
</filter>
<linearGradient id="paint0_linear_0_1" x1="129.734" y1="76.2748" x2="129.734" y2="88.4688" gradientUnits="userSpaceOnUse">
<stop stop-color="#B0BACC"/>
<stop offset="1" stop-color="#969EAE"/>
</linearGradient>
</defs>
</svg>
