<svg width="34" height="32" viewBox="0 0 34 32" fill="none" xmlns="http://www.w3.org/2000/svg">
<path d="M31.4342 1L18.5669 10.5209L20.9597 4.90993L31.4342 1Z" fill="#E17726" stroke="#E17726" stroke-width="0.25" stroke-linecap="round" stroke-linejoin="round"/>
<path d="M1.75391 1L14.5067 10.6098L12.2285 4.90992L1.75391 1Z" fill="#E27625" stroke="#E27625" stroke-width="0.25" stroke-linecap="round" stroke-linejoin="round"/>
<path d="M26.8011 23.0743L23.3774 28.3044L30.7084 30.3229L32.8084 23.1886L26.8011 23.0743Z" fill="#E27625" stroke="#E27625" stroke-width="0.25" stroke-linecap="round" stroke-linejoin="round"/>
<path d="M0.39209 23.1886L2.47936 30.3229L9.79759 28.3044L6.38664 23.0743L0.39209 23.1886Z" fill="#E27625" stroke="#E27625" stroke-width="0.25" stroke-linecap="round" stroke-linejoin="round"/>
<path d="M9.40303 14.2426L7.3667 17.3147L14.6213 17.6447L14.3795 9.83759L9.40303 14.2426Z" fill="#E27625" stroke="#E27625" stroke-width="0.25" stroke-linecap="round" stroke-linejoin="round"/>
<path d="M23.785 14.2394L18.7324 9.74554L18.5669 17.6416L25.8214 17.3115L23.785 14.2394Z" fill="#E27625" stroke="#E27625" stroke-width="0.25" stroke-linecap="round" stroke-linejoin="round"/>
<path d="M9.79785 28.3037L14.1887 26.1838L10.4088 23.2386L9.79785 28.3037Z" fill="#E27625" stroke="#E27625" stroke-width="0.25" stroke-linecap="round" stroke-linejoin="round"/>
<path d="M18.9995 26.1838L23.3776 28.3037L22.7794 23.2386L18.9995 26.1838Z" fill="#E27625" stroke="#E27625" stroke-width="0.25" stroke-linecap="round" stroke-linejoin="round"/>
<path d="M23.3776 28.3078L18.9995 26.1878L19.3558 29.0313L19.3176 30.2373L23.3776 28.3078Z" fill="#D5BFB2" stroke="#D5BFB2" stroke-width="0.25" stroke-linecap="round" stroke-linejoin="round"/>
<path d="M9.79785 28.3078L13.8706 30.2373L13.8451 29.0313L14.1887 26.1878L9.79785 28.3078Z" fill="#D5BFB2" stroke="#D5BFB2" stroke-width="0.25" stroke-linecap="round" stroke-linejoin="round"/>
<path d="M13.9472 21.3627L10.3071 20.2964L12.878 19.1158L13.9472 21.3627Z" fill="#233447" stroke="#233447" stroke-width="0.25" stroke-linecap="round" stroke-linejoin="round"/>
<path d="M19.2417 21.3627L20.3108 19.1158L22.8945 20.2964L19.2417 21.3627Z" fill="#233447" stroke="#233447" stroke-width="0.25" stroke-linecap="round" stroke-linejoin="round"/>
<path d="M9.79761 28.3044L10.434 23.0743L6.38672 23.1886L9.79761 28.3044Z" fill="#CC6228" stroke="#CC6228" stroke-width="0.25" stroke-linecap="round" stroke-linejoin="round"/>
<path d="M22.7539 23.0743L23.3776 28.3044L26.8012 23.1886L22.7539 23.0743Z" fill="#CC6228" stroke="#CC6228" stroke-width="0.25" stroke-linecap="round" stroke-linejoin="round"/>
<path d="M25.8214 17.3108L18.5669 17.6408L19.2414 21.3604L20.3105 19.1134L22.8942 20.294L25.8214 17.3108Z" fill="#CC6228" stroke="#CC6228" stroke-width="0.25" stroke-linecap="round" stroke-linejoin="round"/>
<path d="M10.3067 20.294L12.8776 19.1134L13.9467 21.3604L14.6213 17.6408L7.3667 17.3108L10.3067 20.294Z" fill="#CC6228" stroke="#CC6228" stroke-width="0.25" stroke-linecap="round" stroke-linejoin="round"/>
<path d="M7.3667 17.3108L10.4085 23.2391L10.3067 20.294L7.3667 17.3108Z" fill="#E27525" stroke="#E27525" stroke-width="0.25" stroke-linecap="round" stroke-linejoin="round"/>
<path d="M22.8943 20.294L22.7798 23.2391L25.8216 17.3108L22.8943 20.294Z" fill="#E27525" stroke="#E27525" stroke-width="0.25" stroke-linecap="round" stroke-linejoin="round"/>
<path d="M14.6214 17.6428L13.9468 21.3624L14.7995 25.7546L14.9904 19.966L14.6214 17.6428Z" fill="#E27525" stroke="#E27525" stroke-width="0.25" stroke-linecap="round" stroke-linejoin="round"/>
<path d="M18.5669 17.6428L18.2104 19.9533L18.3887 25.7546L19.2414 21.3624L18.5669 17.6428Z" fill="#E27525" stroke="#E27525" stroke-width="0.25" stroke-linecap="round" stroke-linejoin="round"/>
<path d="M19.2414 21.3625L18.3887 25.7547L18.9996 26.1864L22.7796 23.2412L22.8942 20.2961L19.2414 21.3625Z" fill="#F5841F" stroke="#F5841F" stroke-width="0.25" stroke-linecap="round" stroke-linejoin="round"/>
<path d="M10.3071 20.2961L10.409 23.2412L14.189 26.1864L14.7999 25.7547L13.9472 21.3625L10.3071 20.2961Z" fill="#F5841F" stroke="#F5841F" stroke-width="0.25" stroke-linecap="round" stroke-linejoin="round"/>
<path d="M19.3179 30.238L19.356 29.032L19.0252 28.7527H14.1633L13.8451 29.032L13.8706 30.238L9.79785 28.3084L11.2233 29.4763L14.1124 31.4694H19.0633L21.9651 29.4763L23.3778 28.3084L19.3179 30.238Z" fill="#C0AC9D" stroke="#C0AC9D" stroke-width="0.25" stroke-linecap="round" stroke-linejoin="round"/>
<path d="M18.9993 26.1854L18.3883 25.7538H14.7992L14.1884 26.1854L13.8447 29.029L14.1629 28.7497H19.0247L19.3557 29.029L18.9993 26.1854Z" fill="#161616" stroke="#161616" stroke-width="0.25" stroke-linecap="round" stroke-linejoin="round"/>
<path d="M31.9813 11.1429L33.0631 5.88741L31.434 1L18.9995 10.2036L23.7849 14.2404L30.5431 16.2081L32.0322 14.469L31.3832 13.9992L32.414 13.0599L31.625 12.4505L32.6559 11.6634L31.9813 11.1429Z" fill="#763E1A" stroke="#763E1A" stroke-width="0.25" stroke-linecap="round" stroke-linejoin="round"/>
<path d="M0.125 5.88741L1.21955 11.1429L0.51955 11.6634L1.56318 12.4505L0.774093 13.0599L1.805 13.9992L1.15591 14.469L2.64501 16.2081L9.40325 14.2404L14.1886 10.2036L1.7541 1L0.125 5.88741Z" fill="#763E1A" stroke="#763E1A" stroke-width="0.25" stroke-linecap="round" stroke-linejoin="round"/>
<path d="M30.5434 16.2076L23.7852 14.24L25.8216 17.3121L22.7798 23.2404L26.8016 23.1896H32.8089L30.5434 16.2076Z" fill="#F5841F" stroke="#F5841F" stroke-width="0.25" stroke-linecap="round" stroke-linejoin="round"/>
<path d="M9.40297 14.24L2.64482 16.2076L0.39209 23.1896H6.38664L10.4084 23.2404L7.36664 17.3121L9.40297 14.24Z" fill="#F5841F" stroke="#F5841F" stroke-width="0.25" stroke-linecap="round" stroke-linejoin="round"/>
<path d="M18.5667 17.6418L18.9994 10.2028L20.9594 4.90919H12.2285L14.1885 10.2028L14.6212 17.6418L14.7867 19.9776L14.7994 25.7537H18.3885L18.4012 19.9776L18.5667 17.6418Z" fill="#F5841F" stroke="#F5841F" stroke-width="0.25" stroke-linecap="round" stroke-linejoin="round"/>
</svg>
