<svg width="170" height="198" viewBox="0 0 170 198" fill="none" xmlns="http://www.w3.org/2000/svg">
<path opacity="0.1" d="M85.2906 161C126.431 161 159.783 127.647 159.783 86.3604C159.783 45.0735 126.284 11.7208 85.2906 11.7208C44.1507 11.7208 10.798 45.0735 10.798 86.3604C10.798 127.647 44.1507 161 85.2906 161Z" fill="#EAEEF9"/>
<g filter="url(#filter0_d_0_1)">
<path d="M135.981 49.0407L137.156 143.663C137.156 146.895 134.512 149.393 131.279 149.393H39.0081C35.7757 149.393 33.131 146.748 33.131 143.663V22.0058C33.131 18.7734 35.7757 16.2756 39.0081 16.2756H105.861L135.981 49.0407Z" fill="#1E1F27"/>
</g>
<path d="M78.0911 130.439H74.7118C73.9771 130.439 73.3894 129.704 73.3894 128.823C73.3894 127.941 73.9771 127.207 74.7118 127.207H78.0911C78.8258 127.207 79.4135 127.941 79.4135 128.823C79.4135 129.851 78.8258 130.439 78.0911 130.439Z" fill="#CED7E2"/>
<path d="M67.8062 130.439H48.1178C47.3831 130.439 46.7954 129.704 46.7954 128.823C46.7954 127.941 47.3831 127.207 48.1178 127.207H67.8062C68.5408 127.207 69.1285 127.941 69.1285 128.823C69.1285 129.851 68.5408 130.439 67.8062 130.439Z" fill="#535661"/>
<path d="M92.9309 36.1109H48.7055C47.677 36.1109 46.7954 35.2293 46.7954 34.2008C46.7954 33.1723 47.677 32.2908 48.7055 32.2908H92.9309C93.9594 32.2908 94.841 33.1723 94.841 34.2008C94.841 35.2293 93.9594 36.1109 92.9309 36.1109Z" fill="#535661"/>
<path d="M65.7492 46.6898H48.7055C47.677 46.6898 46.7954 45.8082 46.7954 44.7797C46.7954 43.7512 47.677 42.8696 48.7055 42.8696H65.6022C66.6307 42.8696 67.5123 43.7512 67.5123 44.7797C67.5123 45.8082 66.6307 46.6898 65.7492 46.6898Z" fill="#535661"/>
<path d="M105.861 16.2756V42.4289C105.861 46.1021 109.093 49.0407 112.766 49.0407H135.981" fill="#121318"/>
<path d="M143.033 151.597C141.564 151.597 140.095 151.009 138.919 149.687L114.382 125.15L113.501 125.737C105.567 131.614 96.3101 134.7 86.9067 134.7C75.5932 134.7 64.2797 130.145 55.9048 122.211C47.0891 113.836 42.2405 102.523 42.2405 90.1806C42.2405 65.6436 62.2227 45.6613 86.7598 45.6613C103.51 45.6613 118.202 54.477 126.137 69.4637C133.924 84.3035 132.895 101.641 123.345 115.599L122.757 116.481L147.441 141.165C149.939 143.663 149.351 146.16 148.91 147.483C147.735 149.834 145.384 151.597 143.033 151.597ZM86.7598 57.8564C68.8345 57.8564 54.4355 72.4023 54.4355 90.1806C54.4355 110.457 71.0384 122.652 87.2006 122.652C97.0447 122.652 106.007 118.244 112.325 110.31C120.112 100.612 121.435 87.5359 115.999 76.2224C110.415 64.9089 99.2487 57.8564 86.7598 57.8564Z" fill="#121318"/>
<path d="M72.8014 95.47C74.7115 95.47 76.3277 93.8538 76.3277 91.9438C76.3277 90.0337 74.7115 88.4175 72.8014 88.4175C70.8913 88.4175 69.2751 90.0337 69.2751 91.9438C69.2751 93.8538 70.8913 95.47 72.8014 95.47Z" fill="#00FF83"/>
<path d="M99.8364 95.47C101.746 95.47 103.363 93.8538 103.363 91.9438C103.363 90.0337 101.746 88.4175 99.8364 88.4175C97.9263 88.4175 96.3101 90.0337 96.3101 91.9438C96.3101 94.0008 97.9263 95.47 99.8364 95.47Z" fill="#00FF83"/>
<path d="M72.6637 80.2774L64.9068 84.4657L65.9539 86.405L73.7108 82.2167L72.6637 80.2774Z" fill="#D83232"/>
<path d="M99.3569 80.2217L98.3101 82.1611L106.068 86.3485L107.115 84.4091L99.3569 80.2217Z" fill="#D83232"/>
<path d="M86.3189 103.698C88.591 103.698 90.4329 102.317 90.4329 100.612C90.4329 98.9084 88.591 97.527 86.3189 97.527C84.0468 97.527 82.2049 98.9084 82.2049 100.612C82.2049 102.317 84.0468 103.698 86.3189 103.698Z" fill="#00FF83"/>
<defs>
<filter id="filter0_d_0_1" x="0.806744" y="0.113516" width="168.674" height="197.766" filterUnits="userSpaceOnUse" color-interpolation-filters="sRGB">
<feFlood flood-opacity="0" result="BackgroundImageFix"/>
<feColorMatrix in="SourceAlpha" type="matrix" values="0 0 0 0 0 0 0 0 0 0 0 0 0 0 0 0 0 0 127 0" result="hardAlpha"/>
<feOffset dy="16.1621"/>
<feGaussianBlur stdDeviation="16.1621"/>
<feColorMatrix type="matrix" values="0 0 0 0 0.372549 0 0 0 0 0.207843 0 0 0 0 0.584314 0 0 0 0.27 0"/>
<feBlend mode="normal" in2="BackgroundImageFix" result="effect1_dropShadow_0_1"/>
<feBlend mode="normal" in="SourceGraphic" in2="effect1_dropShadow_0_1" result="shape"/>
</filter>
</defs>
</svg>
