<svg width="38" height="24" viewBox="0 0 38 24" fill="none" xmlns="http://www.w3.org/2000/svg">
<path d="M7.77939 4.68918C13.9764 -1.56306 24.0237 -1.56306 30.2207 4.68918L30.9665 5.44165C31.2763 5.75426 31.2763 6.2611 30.9665 6.57372L28.4152 9.14776C28.2603 9.30406 28.0091 9.30406 27.8541 9.14776L26.8278 8.11227C22.5046 3.75055 15.4954 3.75055 11.1722 8.11227L10.0731 9.22119C9.91819 9.3775 9.667 9.3775 9.51208 9.22119L6.96079 6.64715C6.65094 6.33454 6.65094 5.82769 6.96079 5.51508L7.77939 4.68918ZM35.497 10.0126L37.7676 12.3035C38.0775 12.6161 38.0775 13.1229 37.7676 13.4355L27.5291 23.7655C27.2192 24.0781 26.7169 24.0782 26.407 23.7655C26.407 23.7655 26.407 23.7655 26.407 23.7655L19.1403 16.434C19.0629 16.3559 18.9373 16.3559 18.8598 16.434C18.8598 16.434 18.8598 16.434 18.8598 16.434L11.5933 23.7655C11.2834 24.0781 10.7811 24.0782 10.4712 23.7655C10.4712 23.7655 10.4712 23.7655 10.4712 23.7655L0.232387 13.4354C-0.0774623 13.1228 -0.0774623 12.616 0.232387 12.3033L2.50305 10.0124C2.81289 9.69983 3.31526 9.69983 3.62511 10.0124L10.8919 17.344C10.9694 17.4222 11.095 17.4222 11.1724 17.344C11.1724 17.344 11.1724 17.344 11.1724 17.344L18.4389 10.0124C18.7487 9.69982 19.2511 9.69981 19.5609 10.0124C19.5609 10.0124 19.5609 10.0124 19.5609 10.0124L26.8277 17.344C26.9052 17.4222 27.0308 17.4222 27.1082 17.344L34.3749 10.0126C34.6847 9.69996 35.1871 9.69996 35.497 10.0126Z" fill="#3B99FC"/>
</svg>
